HIERARCHY
ROOT SpineBase
{
  OFFSET 0.000000 0.000000 0.000000
  CHANNELS 6 Xposition Yposition Zposition Zrotation Xrotation Yrotation
  JOINT SpineMid
  {
    OFFSET 0.000000 32.257452 0.000000
    CHANNELS 3 Zrotation Xrotation Yrotation
    JOINT SpineShoulder
    {
      OFFSET 0.228734 23.847183 -0.650635
      CHANNELS 3 Zrotation Xrotation Yrotation
      JOINT Neck
      {
        OFFSET 0.125368 7.837354 -0.520316
        CHANNELS 3 Zrotation Xrotation Yrotation
        JOINT Head
        {
          OFFSET 0.497132 12.280613 -1.582066
          CHANNELS 3 Zrotation Xrotation Yrotation
          End Site
          {
            OFFSET 0 0 0
          }
        }
      }
      JOINT ShoulderLeft
      {
        OFFSET -15.988280 -2.115183 -6.627407
        CHANNELS 3 Zrotation Xrotation Yrotation
        JOINT ElbowLeft
        {
          OFFSET -5.346780 -28.165427 -3.259490
          CHANNELS 3 Zrotation Xrotation Yrotation
          JOINT WristLeft
          {
            OFFSET 1.031990 -23.092724 -5.552310
            CHANNELS 3 Zrotation Xrotation Yrotation
            JOINT HandLeft
            {
              OFFSET -0.319931 -4.900955 0.889057
              CHANNELS 3 Zrotation Xrotation Yrotation
              JOINT HandTipLeft
              {
                OFFSET 0.392522 -7.531104 -0.693165
                CHANNELS 3 Zrotation Xrotation Yrotation
                End Site
                {
                  OFFSET 0 0 0
                }
              }
              JOINT ThumbLeft
              {
                OFFSET -3.779774 2.029475 -3.223407
                CHANNELS 3 Zrotation Xrotation Yrotation
                End Site
                {
                  OFFSET 0 0 0
                }
              }
            }
          }
        }
      }
      JOINT ShoulderRight
      {
        OFFSET 16.977513 -4.944869 5.118502
        CHANNELS 3 Zrotation Xrotation Yrotation
        JOINT ElbowRight
        {
          OFFSET 4.679194 -29.912746 1.419850
          CHANNELS 3 Zrotation Xrotation Yrotation
          JOINT WristRight
          {
            OFFSET 3.059230 -23.228158 -3.244425
            CHANNELS 3 Zrotation Xrotation Yrotation
            JOINT HandRight
            {
              OFFSET -1.005221 -4.564820 0.623960
              CHANNELS 3 Zrotation Xrotation Yrotation
              JOINT HandTipRight
              {
                OFFSET 1.018009 -5.727629 -0.333840
                CHANNELS 3 Zrotation Xrotation Yrotation
                End Site
                {
                  OFFSET 0 0 0
                }
              }
              JOINT ThumbRight
              {
                OFFSET 1.868480 -0.450802 -1.095448
                CHANNELS 3 Zrotation Xrotation Yrotation
                End Site
                {
                  OFFSET 0 0 0
                }
              }
            }
          }
        }
      }
    }
  }
  JOINT HipLeft
  {
    OFFSET -6.675916 0.692855 -6.078132
    CHANNELS 3 Zrotation Xrotation Yrotation
    JOINT KneeLeft
    {
      OFFSET -4.293448 -31.860102 1.608752
      CHANNELS 3 Zrotation Xrotation Yrotation
      JOINT AnkleLeft
      {
        OFFSET -4.599951 -37.301572 9.487905
        CHANNELS 3 Zrotation Xrotation Yrotation
        JOINT FootLeft
        {
          OFFSET 4.140879 -4.648983 -13.101217
          CHANNELS 3 Zrotation Xrotation Yrotation
          End Site
          {
            OFFSET 0 0 0
          }
        }
      }
    }
  }
  JOINT HipRight
  {
    OFFSET 8.108931 0.105317 -1.124308
    CHANNELS 3 Zrotation Xrotation Yrotation
    JOINT KneeRight
    {
      OFFSET 0.776336 -32.710556 4.619556
      CHANNELS 3 Zrotation Xrotation Yrotation
      JOINT AnkleRight
      {
        OFFSET 0.122539 -39.015595 12.223558
        CHANNELS 3 Zrotation Xrotation Yrotation
        JOINT FootRight
        {
          OFFSET 3.985325 -5.979280 -9.933585
          CHANNELS 3 Zrotation Xrotation Yrotation
          End Site
          {
            OFFSET 0 0 0
          }
        }
      }
    }
  }
}
MOTION
Frames: 13
Frame Time: 0.033333
-73.905670 81.636519 393.839929 -0.000000 0.000000 -18.523989 0.000000 0.000000 18.523989 -0.000000 0.000000 0.000000 -0.000000 0.000000 0.000000 0.000000 0.000000 0.000000 -0.000000 0.000000 0.000000 -0.000000 0.000000 0.000000 -0.000000 0.000000 0.000000 -0.000000 0.000000 0.000000 0.000000 0.000000 0.000000 0.000000 0.000000 0.000000 -0.000000 0.000000 0.000000 -0.000000 0.000000 0.000000 -0.000000 0.000000 0.000000 -0.000000 0.000000 0.000000 0.000000 0.000000 0.000000 0.000000 0.000000 0.000000 0.000000 0.000000 18.523989 -0.000000 0.000000 0.000000 -0.000000 0.000000 0.000000 0.000000 0.000000 0.000000 0.000000 0.000000 18.523989 -0.000000 0.000000 0.000000 -0.000000 0.000000 0.000000 0.000000 0.000000 0.000000
-73.967678 81.633235 393.885300 0.007431 -0.085657 -19.034198 -0.034961 0.078550 19.034228 -0.000000 0.000000 0.000000 -0.000000 0.000000 0.000000 0.000000 0.000000 0.000000 -0.000000 0.000000 0.000000 0.006514 -0.857426 -0.039907 -1.566329 0.810334 -0.216890 1.132183 1.816020 0.416129 0.000000 0.000000 0.000000 0.000000 0.000000 0.000000 -0.000000 0.000000 0.000000 -0.000000 0.000000 0.000000 1.312440 1.898911 -0.261799 -3.023370 -0.576520 0.518810 0.000000 0.000000 0.000000 0.000000 0.000000 0.000000 -0.034961 0.078550 19.034228 -0.000000 0.000000 0.000000 -0.000000 0.000000 0.000000 0.000000 0.000000 0.000000 -0.034961 0.078550 19.034228 -0.000000 0.000000 0.000000 -0.805971 -3.672434 -1.205227 0.000000 0.000000 0.000000
-74.034495 81.628328 393.923968 0.015354 -0.162296 -19.460925 -0.068548 0.147909 19.461035 -0.000000 0.000000 0.000000 -0.826207 0.557297 -0.125023 0.000000 0.000000 0.000000 -0.550936 -0.989542 0.246876 0.555024 -0.548204 -0.326849 -2.729585 2.024992 -0.370118 1.933563 2.670250 0.785078 0.000000 0.000000 0.000000 0.000000 0.000000 0.000000 -0.000000 0.000000 0.000000 -0.000000 0.000000 0.000000 2.376812 3.475057 -0.517162 -5.690251 -1.451490 0.791584 0.000000 0.000000 0.000000 0.000000 0.000000 0.000000 -0.068548 0.147909 19.461035 -0.000000 0.000000 0.000000 0.530663 0.842985 -0.730337 0.000000 0.000000 0.000000 -0.068548 0.147909 19.461035 -0.000000 0.000000 0.000000 -1.445986 -6.343972 -2.123632 0.000000 0.000000 0.000000
-74.106120 81.621799 393.955934 0.023765 -0.229889 -19.804579 -0.100249 0.208240 19.804809 -0.000000 0.000000 0.000000 -1.165822 0.776997 -0.173823 0.000000 0.000000 0.000000 -0.767102 -1.341505 0.334498 0.763242 -0.696026 -0.443854 -3.505665 3.644456 -0.475183 2.449900 2.490688 1.101725 0.000000 0.000000 0.000000 0.000000 0.000000 0.000000 -0.000000 0.000000 0.000000 -0.758007 -0.775086 -0.001336 4.033440 5.613446 -0.820199 -8.019882 -2.768541 0.833647 0.000000 0.000000 0.000000 0.000000 0.000000 0.000000 -0.100249 0.208240 19.804809 -0.000000 0.000000 0.000000 0.565673 0.780924 -0.881571 0.000000 0.000000 0.000000 -0.100249 0.208240 19.804809 -0.000000 0.000000 0.000000 -1.814725 -7.799687 -2.642012 0.000000 0.000000 0.000000
-74.182553 81.613647 393.981198 0.032662 -0.288412 -20.065482 -0.129633 0.259699 20.065858 -0.000000 0.000000 0.000000 -1.457081 0.957574 -0.214428 0.000000 0.000000 0.000000 -0.945886 -1.601235 0.400257 0.928656 -0.755526 -0.529422 -3.900234 5.684842 -0.550098 2.712535 1.208848 1.357670 0.000000 0.000000 0.000000 0.000000 0.000000 0.000000 0.089903 -0.846377 -0.127408 -1.101346 0.013232 0.168278 5.069255 6.898004 -1.113662 -10.023009 -4.606169 0.654113 0.000000 0.000000 0.000000 0.000000 0.000000 0.000000 -0.129633 0.259699 20.065858 -0.000000 0.000000 0.000000 0.447380 0.399518 -0.894546 0.000000 0.000000 0.000000 -0.129633 0.259699 20.065858 -0.000000 0.000000 0.000000 -1.846245 -7.927550 -2.691030 0.000000 0.000000 0.000000
-74.263795 81.603872 393.999761 0.042044 -0.337847 -20.243841 -0.156349 0.302429 20.244377 -0.000000 0.000000 0.000000 -1.700383 1.099147 -0.247411 0.000000 0.000000 0.000000 -1.088514 -1.770454 0.445266 1.053097 -0.724590 -0.583330 -3.907055 8.174770 -0.616298 2.736059 -1.234668 1.544685 0.000000 0.000000 0.000000 0.000000 0.000000 0.000000 0.076764 -0.926870 -0.140658 -1.342378 0.138586 0.227218 6.028464 8.007461 -1.416987 -11.714643 -6.992129 0.266960 0.000000 0.000000 0.000000 0.000000 0.000000 0.000000 -0.156349 0.302429 20.244377 -0.000000 0.000000 0.000000 0.171498 -0.315863 -0.769103 0.000000 0.000000 0.000000 -0.156349 0.302429 20.244377 -0.000000 0.000000 0.000000 -1.534025 -6.716353 -2.263683 0.000000 0.000000 0.000000
-74.369205 81.593411 394.002265 0.061702 -0.374649 -20.270437 -0.187681 0.330069 20.271179 -0.000000 0.000000 0.000000 -2.004677 1.241124 -0.287007 0.000000 0.000000 0.000000 -1.232253 -1.869186 0.477299 1.224339 -0.453651 -0.620427 -3.708078 12.697161 -0.769651 3.291614 -6.924910 1.842851 0.000000 0.000000 0.000000 0.000000 0.000000 0.000000 0.066433 -0.926734 -0.141213 -1.673523 0.254932 0.295720 7.298842 8.804210 -1.672747 -14.649566 -10.722681 -0.766158 0.000000 0.000000 0.000000 0.000000 0.000000 0.000000 -0.187681 0.330069 20.271179 -0.000000 0.000000 0.000000 -0.693323 -2.368126 -0.181627 0.000000 0.000000 0.000000 -0.187681 0.330069 20.271179 -0.000000 0.000000 0.000000 -1.967839 -8.751163 -3.162812 0.000000 0.000000 0.000000
-74.476747 81.579485 393.997633 0.074600 -0.396131 -20.272596 -0.207236 0.345744 20.273479 0.388852 -0.724290 0.039845 -2.552995 2.034547 -0.314918 0.000000 0.000000 0.000000 -1.655885 -1.108073 0.455351 1.260405 -0.152792 -0.602174 -2.966930 16.428863 -0.936433 3.303477 -14.379294 1.919404 0.000000 0.000000 0.000000 0.000000 0.000000 0.000000 -0.364317 -0.176532 -0.174775 -1.986648 0.521599 0.389489 8.458862 9.888112 -2.082870 -16.316692 -16.326352 -2.171787 0.000000 0.000000 0.000000 0.000000 0.000000 0.000000 0.520134 -0.142589 20.393830 -0.511630 0.711182 -0.118465 -1.344603 -3.933349 0.266994 0.000000 0.000000 0.000000 -0.207236 0.345744 20.273479 -0.000000 0.000000 0.000000 -0.887756 -4.338729 -1.557987 0.000000 0.000000 0.000000
-74.564498 81.562009 393.999473 0.079469 -0.406786 -20.166011 -0.214837 0.354451 20.166958 0.375573 -0.745732 0.039292 -2.507196 2.033418 -0.309685 0.000000 0.000000 0.000000 -1.636569 -0.942014 0.429751 1.185415 -0.006610 -0.541217 -1.375209 19.412979 -1.132677 0.991446 -16.961772 1.600567 0.000000 0.000000 0.000000 0.000000 0.000000 0.000000 -0.425924 -0.094942 -0.168019 -2.152327 0.863226 0.478114 8.874767 10.164575 -2.307954 -15.041283 -19.115794 -2.484964 0.000000 0.000000 0.000000 0.000000 0.000000 0.000000 0.628947 -0.350951 20.323119 -0.546321 0.954524 -0.151636 -1.747808 -4.913004 0.545492 0.000000 0.000000 0.000000 -0.214837 0.354451 20.166958 -0.000000 0.000000 0.000000 0.465712 2.190143 0.654774 0.000000 0.000000 0.000000
-74.638571 81.544214 394.016883 0.071596 -0.436177 -20.043779 -0.216757 0.385218 20.044780 0.377896 -0.801590 0.040538 -2.418973 2.079475 -0.298850 0.000000 0.000000 0.000000 -1.641878 -0.673227 0.392339 1.121773 0.205378 -0.462238 -0.023963 22.253023 -1.407377 1.038439 -19.123272 1.768719 0.000000 0.000000 0.000000 0.000000 0.000000 0.000000 -0.377365 0.801840 -0.035254 -2.272424 0.469105 0.389325 8.865250 12.091193 -3.012306 -14.894145 -22.064177 -2.543800 0.000000 0.000000 0.000000 0.000000 0.000000 0.000000 0.632080 -0.473819 20.218816 0.095490 1.712837 -0.108035 -2.493150 -5.858492 0.558793 0.000000 0.000000 0.000000 -0.216757 0.385218 20.044780 -0.000000 0.000000 0.000000 1.705727 9.678496 3.030741 0.000000 0.000000 0.000000
-74.693851 81.527462 394.020604 0.062599 -0.456009 -20.011630 -0.214875 0.407053 20.012643 0.364126 -0.840433 0.040271 -2.269218 2.072084 -0.282022 0.000000 0.000000 0.000000 -1.581404 -0.394490 0.345003 0.997332 0.410772 -0.368106 2.706864 24.115367 -1.726554 -0.777560 -19.828404 1.266027 0.000000 0.000000 0.000000 0.000000 0.000000 0.000000 -0.363574 0.840672 -0.034933 -2.342918 0.997655 0.479801 9.805919 13.869567 -3.686668 -14.623379 -22.795634 -1.993248 0.000000 0.000000 0.000000 0.000000 0.000000 0.000000 0.592345 -0.582145 20.197563 0.283162 1.936361 -0.111301 -2.455062 -5.641712 0.428193 0.000000 0.000000 0.000000 -0.214875 0.407053 20.012643 -0.000000 0.000000 0.000000 2.135160 12.290516 3.730694 0.000000 0.000000 0.000000
-74.743242 81.502969 394.009490 0.063761 -0.470366 -20.006115 -0.220840 0.420167 20.007187 0.372111 -0.865239 0.041336 -2.233513 2.081466 -0.277109 0.000000 0.000000 0.000000 -1.597877 -0.153113 0.306932 1.231840 1.011983 -0.345907 4.986961 24.310950 -1.858611 -2.148287 -19.739382 0.743787 0.000000 0.000000 0.000000 0.000000 0.000000 0.000000 -0.371529 0.865489 -0.035720 -2.317476 1.476130 0.548492 10.667394 15.096547 -4.188407 -15.258291 -23.268220 -1.798555 0.000000 0.000000 0.000000 0.000000 0.000000 0.000000 0.529004 -0.615200 20.191814 0.426552 1.966188 -0.096040 -2.104490 -4.679033 0.063247 0.000000 0.000000 0.000000 -0.220840 0.420167 20.007187 -0.000000 0.000000 0.000000 2.267307 12.778936 3.777522 0.000000 0.000000 0.000000
-74.787375 81.478003 393.992622 0.064096 -0.463535 -20.020548 -0.218921 0.413578 20.021597 0.378559 -0.852975 0.041577 -2.252931 2.042347 -0.278415 0.000000 0.000000 0.000000 -1.619494 -0.020028 0.282254 1.245804 0.867128 -0.318598 7.000668 22.772702 -1.715955 -3.894028 -17.947972 -0.043018 0.000000 0.000000 0.000000 0.000000 0.000000 0.000000 -0.377982 0.853231 -0.035944 -2.252326 1.881173 0.599571 12.643586 16.719330 -4.817360 -18.885889 -24.073258 -2.550257 0.000000 0.000000 0.000000 0.000000 0.000000 0.000000 0.498649 -0.590953 20.199663 0.455404 1.864901 -0.079314 -1.420955 -3.076049 -0.517208 0.000000 0.000000 0.000000 -0.240220 1.269317 20.079772 -0.273813 -0.811033 -0.059800 2.019740 10.676505 3.077480 0.000000 0.000000 0.000000
